<svg width="57" height="57" viewBox="0 0 57 57" fill="none" xmlns="http://www.w3.org/2000/svg">
<path d="M40.4477 29.7602L22.6352 47.5727C22.4698 47.7382 22.2733 47.8695 22.057 47.9591C21.8408 48.0486 21.6091 48.0947 21.375 48.0947C21.141 48.0947 20.9092 48.0486 20.693 47.9591C20.4767 47.8695 20.2803 47.7382 20.1148 47.5727C19.9493 47.4072 19.818 47.2108 19.7284 46.9945C19.6389 46.7783 19.5928 46.5465 19.5928 46.3125C19.5928 46.0785 19.6389 45.8467 19.7284 45.6305C19.818 45.4142 19.9493 45.2178 20.1148 45.0523L36.6693 28.5L20.1148 11.9477C19.7805 11.6135 19.5928 11.1602 19.5928 10.6875C19.5928 10.2148 19.7805 9.7615 20.1148 9.42727C20.449 9.09303 20.9023 8.90526 21.375 8.90526C21.8477 8.90526 22.301 9.09303 22.6352 9.42727L40.4477 27.2398C40.6134 27.4052 40.7447 27.6016 40.8344 27.8179C40.924 28.0341 40.9702 28.2659 40.9702 28.5C40.9702 28.7341 40.924 28.9659 40.8344 29.1821C40.7447 29.3984 40.6134 29.5948 40.4477 29.7602Z" fill="white"/>
</svg>
