<svg width="61" height="61" viewBox="0 0 61 61" fill="none" xmlns="http://www.w3.org/2000/svg">
<path d="M31.4531 5.71875C25.1356 5.72569 19.0789 8.23837 14.6118 12.7055C10.1446 17.1726 7.63194 23.2294 7.625 29.5469V49.5625C7.625 50.5736 8.02667 51.5434 8.74166 52.2583C9.45664 52.9733 10.4264 53.375 11.4375 53.375H31.4531C37.7727 53.375 43.8335 50.8645 48.3022 46.3959C52.7708 41.9273 55.2812 35.8665 55.2812 29.5469C55.2812 23.2273 52.7708 17.1665 48.3022 12.6978C43.8335 8.22921 37.7727 5.71875 31.4531 5.71875ZM31.4531 49.5625H11.4375V29.5469C11.4375 25.5882 12.6114 21.7183 14.8107 18.4268C17.0101 15.1352 20.1361 12.5698 23.7935 11.0548C27.4509 9.53991 31.4753 9.14354 35.358 9.91584C39.2406 10.6882 42.8071 12.5945 45.6063 15.3937C48.4055 18.1929 50.3119 21.7594 51.0842 25.642C51.8565 29.5247 51.4601 33.5491 49.9452 37.2065C48.4302 40.8639 45.8648 43.9899 42.5732 46.1893C39.2817 48.3886 35.4118 49.5625 31.4531 49.5625ZM34.3125 30.5C34.3125 31.0655 34.1448 31.6184 33.8306 32.0886C33.5164 32.5588 33.0698 32.9253 32.5474 33.1417C32.0249 33.3581 31.45 33.4148 30.8953 33.3044C30.3406 33.1941 29.8311 32.9218 29.4312 32.5219C29.0314 32.122 28.759 31.6125 28.6487 31.0578C28.5384 30.5032 28.595 29.9282 28.8114 29.4058C29.0278 28.8833 29.3943 28.4367 29.8645 28.1225C30.3348 27.8083 30.8876 27.6406 31.4531 27.6406C32.2115 27.6406 32.9388 27.9419 33.475 28.4781C34.0112 29.0144 34.3125 29.7416 34.3125 30.5ZM23.8281 30.5C23.8281 31.0655 23.6604 31.6184 23.3462 32.0886C23.032 32.5588 22.5855 32.9253 22.063 33.1417C21.5405 33.3581 20.9656 33.4148 20.4109 33.3044C19.8562 33.1941 19.3468 32.9218 18.9469 32.5219C18.547 32.122 18.2746 31.6125 18.1643 31.0578C18.054 30.5032 18.1106 29.9282 18.327 29.4058C18.5435 28.8833 18.9099 28.4367 19.3802 28.1225C19.8504 27.8083 20.4032 27.6406 20.9688 27.6406C21.7271 27.6406 22.4544 27.9419 22.9906 28.4781C23.5269 29.0144 23.8281 29.7416 23.8281 30.5ZM44.7969 30.5C44.7969 31.0655 44.6292 31.6184 44.315 32.0886C44.0008 32.5588 43.5542 32.9253 43.0317 33.1417C42.5093 33.3581 41.9343 33.4148 41.3797 33.3044C40.825 33.1941 40.3155 32.9218 39.9156 32.5219C39.5157 32.122 39.2434 31.6125 39.1331 31.0578C39.0227 30.5032 39.0794 29.9282 39.2958 29.4058C39.5122 28.8833 39.8787 28.4367 40.3489 28.1225C40.8191 27.8083 41.372 27.6406 41.9375 27.6406C42.6959 27.6406 43.4231 27.9419 43.9594 28.4781C44.4956 29.0144 44.7969 29.7416 44.7969 30.5Z" fill="white"/>
</svg>
