<svg width="160" height="160" viewBox="0 0 160 160" fill="none" xmlns="http://www.w3.org/2000/svg">
<g filter="url(#filter0_i_84_143)">
<path d="M135 45C135 46.3261 134.473 47.5979 133.536 48.5355C132.598 49.4732 131.326 50 130 50H110C108.674 50 107.402 49.4732 106.464 48.5355C105.527 47.5979 105 46.3261 105 45C105 43.6739 105.527 42.4021 106.464 41.4645C107.402 40.5268 108.674 40 110 40H130C131.326 40 132.598 40.5268 133.536 41.4645C134.473 42.4021 135 43.6739 135 45ZM130 60H110C108.674 60 107.402 60.5268 106.464 61.4645C105.527 62.4021 105 63.6739 105 65C105 66.3261 105.527 67.5979 106.464 68.5355C107.402 69.4732 108.674 70 110 70H130C131.326 70 132.598 69.4732 133.536 68.5355C134.473 67.5979 135 66.3261 135 65C135 63.6739 134.473 62.4021 133.536 61.4645C132.598 60.5268 131.326 60 130 60ZM155 30V130C155 132.652 153.946 135.196 152.071 137.071C150.196 138.946 147.652 140 145 140H95C92.3478 140 89.8043 138.946 87.9289 137.071C86.0536 135.196 85 132.652 85 130V120H60V130H70C71.3261 130 72.5979 130.527 73.5355 131.464C74.4732 132.402 75 133.674 75 135C75 136.326 74.4732 137.598 73.5355 138.536C72.5979 139.473 71.3261 140 70 140H40C38.6739 140 37.4021 139.473 36.4645 138.536C35.5268 137.598 35 136.326 35 135C35 133.674 35.5268 132.402 36.4645 131.464C37.4021 130.527 38.6739 130 40 130H50V120H20C16.0218 120 12.2064 118.42 9.3934 115.607C6.58035 112.794 5 108.978 5 105V60C5 56.0218 6.58035 52.2064 9.3934 49.3934C12.2064 46.5804 16.0218 45 20 45H85V30C85 27.3478 86.0536 24.8043 87.9289 22.9289C89.8043 21.0536 92.3478 20 95 20H145C147.652 20 150.196 21.0536 152.071 22.9289C153.946 24.8043 155 27.3478 155 30ZM85 110V55H20C18.6739 55 17.4021 55.5268 16.4645 56.4645C15.5268 57.4021 15 58.6739 15 60V105C15 106.326 15.5268 107.598 16.4645 108.536C17.4021 109.473 18.6739 110 20 110H85ZM145 130V30H95V130H145ZM120 105C118.517 105 117.067 105.44 115.833 106.264C114.6 107.088 113.639 108.259 113.071 109.63C112.503 111 112.355 112.508 112.644 113.963C112.934 115.418 113.648 116.754 114.697 117.803C115.746 118.852 117.082 119.566 118.537 119.856C119.992 120.145 121.5 119.997 122.87 119.429C124.241 118.861 125.412 117.9 126.236 116.667C127.06 115.433 127.5 113.983 127.5 112.5C127.5 110.511 126.71 108.603 125.303 107.197C123.897 105.79 121.989 105 120 105Z" fill="white"/>
</g>
<defs>
<filter id="filter0_i_84_143" x="0" y="0" width="160" height="164" filterUnits="userSpaceOnUse" color-interpolation-filters="sRGB">
<feFlood flood-opacity="0" result="BackgroundImageFix"/>
<feBlend mode="normal" in="SourceGraphic" in2="BackgroundImageFix" result="shape"/>
<feColorMatrix in="SourceAlpha" type="matrix" values="0 0 0 0 0 0 0 0 0 0 0 0 0 0 0 0 0 0 127 0" result="hardAlpha"/>
<feOffset dy="4"/>
<feGaussianBlur stdDeviation="2"/>
<feComposite in2="hardAlpha" operator="arithmetic" k2="-1" k3="1"/>
<feColorMatrix type="matrix" values="0 0 0 0 0 0 0 0 0 0 0 0 0 0 0 0 0 0 0.25 0"/>
<feBlend mode="normal" in2="shape" result="effect1_innerShadow_84_143"/>
</filter>
</defs>
</svg>
