<svg width="28" height="27" viewBox="0 0 28 27" fill="none" xmlns="http://www.w3.org/2000/svg">
<path d="M13.3478 1.40874C13.6146 0.863755 14.3854 0.863755 14.6522 1.40874L18.106 8.46359C18.2119 8.68 18.4167 8.83 18.6536 8.8647L26.3765 9.996C26.973 10.0834 27.2112 10.8225 26.7796 11.2467L21.1913 16.7381C21.0198 16.9066 20.9416 17.1493 20.9821 17.3871L22.3013 25.1412C22.4032 25.7402 21.7796 26.197 21.246 25.9141L14.3385 22.2532C14.1266 22.1409 13.8734 22.1409 13.6615 22.2532L6.75403 25.9141C6.22044 26.197 5.59679 25.7402 5.6987 25.1412L7.01791 17.3871C7.05838 17.1493 6.98016 16.9066 6.80873 16.7381L1.22044 11.2467C0.788753 10.8225 1.02697 10.0834 1.62355 9.996L9.34637 8.8647C9.58327 8.83 9.78807 8.68 9.89401 8.46359L13.3478 1.40874Z" fill="#DDE62D" stroke="white" stroke-width="2" stroke-linejoin="round"/>
</svg>
