<svg width="25" height="26" viewBox="0 0 25 26" fill="none" xmlns="http://www.w3.org/2000/svg">
<path d="M12.7246 10.411V15.3389H19.5727C19.272 16.9237 18.3696 18.2656 17.0162 19.1679L21.1459 22.3722C23.552 20.1512 24.9402 16.8891 24.9402 13.0139C24.9402 12.1116 24.8592 11.2439 24.7088 10.4111L12.7246 10.411Z" fill="white"/>
<path d="M5.59352 15.1465L4.66212 15.8595L1.36523 18.4275C3.45901 22.5803 7.75035 25.4492 12.7245 25.4492C16.16 25.4492 19.0404 24.3155 21.1458 22.3722L17.0161 19.1679C15.8824 19.9313 14.4364 20.3941 12.7245 20.3941C9.4161 20.3941 6.6052 18.1615 5.59872 15.1539L5.59352 15.1465Z" fill="white"/>
<path d="M1.3649 7.0217C0.497365 8.73367 0 10.6655 0 12.7246C0 14.7836 0.497365 16.7155 1.3649 18.4274C1.3649 18.4389 5.5988 15.1422 5.5988 15.1422C5.34431 14.3787 5.19389 13.569 5.19389 12.7244C5.19389 11.8799 5.34431 11.0702 5.5988 10.3067L1.3649 7.0217Z" fill="white"/>
<path d="M12.7247 5.0667C14.5988 5.0667 16.2645 5.71448 17.5948 6.96383L21.2386 3.32001C19.0292 1.26097 16.1604 0 12.7247 0C7.75061 0 3.45901 2.85725 1.36523 7.02168L5.599 10.3069C6.60534 7.29928 9.41636 5.0667 12.7247 5.0667Z" fill="white"/>
</svg>
