<svg width="158" height="158" viewBox="0 0 158 158" fill="none" xmlns="http://www.w3.org/2000/svg">
<g filter="url(#filter0_i_84_77)">
<path d="M79 14.8125C66.3049 14.8125 53.8949 18.577 43.3394 25.63C32.7838 32.6831 24.5567 42.7078 19.6985 54.4365C14.8403 66.1652 13.5692 79.0712 16.0459 91.5224C18.5226 103.974 24.6358 115.411 33.6126 124.387C42.5894 133.364 54.0265 139.477 66.4777 141.954C78.9288 144.431 91.8348 143.16 103.564 138.302C115.292 133.443 125.317 125.216 132.37 114.661C139.423 104.105 143.188 91.6951 143.188 79C143.17 61.9819 136.401 45.666 124.368 33.6324C112.334 21.5988 96.0181 14.8305 79 14.8125ZM79 133.312C68.258 133.312 57.7573 130.127 48.8256 124.159C39.894 118.191 32.9326 109.709 28.8218 99.7845C24.711 89.8602 23.6355 78.9398 25.7311 68.4042C27.8268 57.8686 32.9996 48.191 40.5953 40.5953C48.191 32.9995 57.8686 27.8268 68.4042 25.7311C78.9398 23.6354 89.8602 24.711 99.7845 28.8218C109.709 32.9326 118.191 39.8939 124.159 48.8256C130.127 57.7572 133.313 68.258 133.313 79C133.296 93.3996 127.569 107.205 117.387 117.387C107.205 127.569 93.3996 133.296 79 133.312ZM103.688 91.3438C103.688 95.927 101.867 100.323 98.626 103.563C95.3851 106.804 90.9895 108.625 86.4063 108.625H83.9375V113.562C83.9375 114.872 83.4173 116.128 82.4914 117.054C81.5654 117.98 80.3095 118.5 79 118.5C77.6905 118.5 76.4347 117.98 75.5087 117.054C74.5827 116.128 74.0625 114.872 74.0625 113.562V108.625H64.1875C62.878 108.625 61.6222 108.105 60.6962 107.179C59.7702 106.253 59.25 104.997 59.25 103.688C59.25 102.378 59.7702 101.122 60.6962 100.196C61.6222 99.2702 62.878 98.75 64.1875 98.75H86.4063C88.3705 98.75 90.2543 97.9697 91.6433 96.5808C93.0322 95.1918 93.8125 93.308 93.8125 91.3438C93.8125 89.3795 93.0322 87.4957 91.6433 86.1067C90.2543 84.7178 88.3705 83.9375 86.4063 83.9375H71.5938C67.0105 83.9375 62.615 82.1168 59.3741 78.8759C56.1332 75.6351 54.3125 71.2395 54.3125 66.6562C54.3125 62.073 56.1332 57.6774 59.3741 54.4366C62.615 51.1957 67.0105 49.375 71.5938 49.375H74.0625V44.4375C74.0625 43.128 74.5827 41.8721 75.5087 40.9462C76.4347 40.0202 77.6905 39.5 79 39.5C80.3095 39.5 81.5654 40.0202 82.4914 40.9462C83.4173 41.8721 83.9375 43.128 83.9375 44.4375V49.375H93.8125C95.122 49.375 96.3779 49.8952 97.3039 50.8212C98.2298 51.7471 98.75 53.003 98.75 54.3125C98.75 55.622 98.2298 56.8779 97.3039 57.8038C96.3779 58.7298 95.122 59.25 93.8125 59.25H71.5938C69.6295 59.25 67.7457 60.0303 66.3568 61.4192C64.9678 62.8082 64.1875 64.692 64.1875 66.6562C64.1875 68.6205 64.9678 70.5043 66.3568 71.8933C67.7457 73.2822 69.6295 74.0625 71.5938 74.0625H86.4063C90.9895 74.0625 95.3851 75.8832 98.626 79.1241C101.867 82.3649 103.688 86.7605 103.688 91.3438Z" fill="white"/>
</g>
<defs>
<filter id="filter0_i_84_77" x="0" y="0" width="158" height="162" filterUnits="userSpaceOnUse" color-interpolation-filters="sRGB">
<feFlood flood-opacity="0" result="BackgroundImageFix"/>
<feBlend mode="normal" in="SourceGraphic" in2="BackgroundImageFix" result="shape"/>
<feColorMatrix in="SourceAlpha" type="matrix" values="0 0 0 0 0 0 0 0 0 0 0 0 0 0 0 0 0 0 127 0" result="hardAlpha"/>
<feOffset dy="4"/>
<feGaussianBlur stdDeviation="2"/>
<feComposite in2="hardAlpha" operator="arithmetic" k2="-1" k3="1"/>
<feColorMatrix type="matrix" values="0 0 0 0 0 0 0 0 0 0 0 0 0 0 0 0 0 0 0.25 0"/>
<feBlend mode="normal" in2="shape" result="effect1_innerShadow_84_77"/>
</filter>
</defs>
</svg>
