<svg width="31" height="31" viewBox="0 0 31 31" fill="none" xmlns="http://www.w3.org/2000/svg">
<path d="M14.8479 3.50544C15.1147 2.96482 15.8856 2.96482 16.1524 3.50544L19.6063 10.5039C19.7123 10.7185 19.9171 10.8673 20.154 10.9018L27.8772 12.024C28.4738 12.1107 28.7121 12.8439 28.2803 13.2647L22.6918 18.7122C22.5203 18.8793 22.4421 19.1201 22.4826 19.356L23.8019 27.048C23.9038 27.6422 23.2801 28.0953 22.7465 27.8148L15.8386 24.1831C15.6267 24.0717 15.3736 24.0717 15.1617 24.1831L8.25383 27.8148C7.72021 28.0953 7.09653 27.6422 7.19844 27.048L8.51772 19.356C8.55819 19.1201 8.47996 18.8793 8.30853 18.7122L2.71997 13.2647C2.28825 12.8439 2.52648 12.1107 3.12309 12.024L10.8463 10.9018C11.0832 10.8673 11.288 10.7185 11.394 10.5039L14.8479 3.50544Z" stroke="white" stroke-width="2" stroke-linejoin="round"/>
</svg>
